<svg width="32" height="32" viewBox="0 0 32 32" fill="none" xmlns="http://www.w3.org/2000/svg">
<rect width="32" height="32" rx="16" fill="#373F47"/>
<g clip-path="url(#clip0_1364_1686)">
<path d="M8.98553 18.9975C8.44921 18.9776 8.01041 18.8403 7.66731 18.5854C7.60183 18.5367 7.4458 18.3907 7.39346 18.3291C7.25432 18.1654 7.15973 18.0062 7.09664 17.8295C6.9025 17.2856 7.00242 16.5719 7.38244 15.7886C7.70781 15.1181 8.20988 14.453 9.08582 13.5318C9.21485 13.3963 9.5991 12.9999 9.60158 12.9999C9.60249 12.9999 9.58155 13.0338 9.5552 13.0751C9.32744 13.4319 9.13257 13.8522 9.0264 14.2161C8.85586 14.7999 8.87643 15.3009 9.08665 15.6894C9.23166 15.9571 9.48026 16.1889 9.75981 16.3171C10.2492 16.5413 10.9657 16.5599 11.8407 16.3714C11.901 16.3583 14.8862 15.6171 18.4746 14.7242C22.0631 13.8313 24.9995 13.1012 25 13.1018C25.001 13.1026 16.6631 16.4396 12.3347 18.1709C11.6493 18.4449 11.466 18.5142 11.1437 18.62C10.3199 18.8906 9.58201 19.0197 8.98553 18.9975V18.9975Z" fill="white"/>
</g>
<defs>
<clipPath id="clip0_1364_1686">
<rect width="18" height="6" fill="white" transform="translate(7 13)"/>
</clipPath>
</defs>
</svg>
