<svg width="32" height="32" viewBox="0 0 32 32" fill="none" xmlns="http://www.w3.org/2000/svg">
<rect width="32" height="32" rx="16" fill="#373F47"/>
<g clip-path="url(#clip0_1364_1695)">
<path d="M16.713 8.47872C17.8396 7.00717 19.4059 7 19.4059 7C19.4059 7 19.6389 8.3835 18.5196 9.71626C17.3245 11.1393 15.9661 10.9065 15.9661 10.9065C15.9661 10.9065 15.7111 9.78727 16.713 8.47872ZM16.1094 11.8756C16.689 11.8756 17.7648 11.0861 19.165 11.0861C21.5752 11.0861 22.5233 12.7856 22.5233 12.7856C22.5233 12.7856 20.6689 13.7252 20.6689 16.005C20.6689 18.5769 22.979 19.4632 22.979 19.4632C22.979 19.4632 21.3641 23.9675 19.1829 23.9675C18.1811 23.9675 17.4022 23.2984 16.3466 23.2984C15.2709 23.2984 14.2034 23.9924 13.5081 23.9924C11.5163 23.9925 9 19.7197 9 16.2852C9 12.9061 11.1299 11.1334 13.1277 11.1334C14.4264 11.1334 15.4343 11.8756 16.1094 11.8756Z" fill="white"/>
</g>
<defs>
<clipPath id="clip0_1364_1695">
<rect width="14" height="17" fill="white" transform="translate(9 7)"/>
</clipPath>
</defs>
</svg>
