<svg width="32" height="32" viewBox="0 0 32 32" fill="none" xmlns="http://www.w3.org/2000/svg">
<rect width="32" height="32" rx="16" fill="#373F47"/>
<g clip-path="url(#clip0_1364_1689)">
<path d="M23.1346 17.2624V17.6823H25.4701V17.261H25.0283L24.9127 17.2545C24.866 17.2422 24.8334 17.2102 24.8215 17.1761L24.8117 17.084V16.42L24.8294 16.3574C24.8606 16.3209 26.0687 14.9599 26.1244 14.9004C26.2408 14.7682 26.3041 14.7398 26.4602 14.7398H26.8899V14.3222H24.9656V14.7398H25.2537C25.3392 14.7398 25.363 14.8253 25.3261 14.8709L24.5084 15.8133L24.485 15.8107L23.6884 14.8709C23.6309 14.801 23.6784 14.7398 23.7407 14.7398H24.0238V14.3222H21.6756V14.7398H22.0939C22.2756 14.7398 22.3935 14.8536 22.4627 14.9277C22.5169 14.9859 23.7126 16.3235 23.7407 16.3616C23.7705 16.3983 23.7705 16.4037 23.7705 16.42V17.084L23.7629 17.1761C23.7446 17.2102 23.716 17.2422 23.6706 17.2545L23.5531 17.2624H23.1346ZM15.9483 14.3222V14.741H16.3203C16.59 14.741 16.6096 14.8897 16.6096 15.0171V16.9837C16.6096 17.1017 16.6166 17.2624 16.4443 17.2624H15.9825V17.6823H17.9502V17.2624H17.4706C17.2806 17.2624 17.2695 17.1776 17.2663 16.9919V15.309L19.9642 17.6823H20.6496L20.6136 15.0015C20.6184 14.8068 20.6294 14.7398 20.8332 14.7398H21.2637V14.3222H19.2609V14.7398H19.702C19.9024 14.7398 19.9383 14.8187 19.9394 15.0015L19.9642 16.4037L17.6227 14.3222H15.9483V14.3222ZM7.10399 14.1085C6.68216 14.1085 6.2013 14.1898 5.79737 14.3674C5.42016 14.534 5.10986 14.801 5.10986 15.246C5.10986 15.6446 5.36779 15.879 5.35978 15.8713C5.47091 15.9714 5.6471 16.1417 6.1086 16.2396C6.31363 16.2846 6.75376 16.351 7.19375 16.3997C7.62853 16.4441 8.05824 16.4871 8.23335 16.5298C8.37187 16.5659 8.60322 16.6132 8.60322 16.8699C8.60322 17.1279 8.35811 17.2054 8.31537 17.2216C8.27155 17.2394 7.97849 17.3719 7.44794 17.3719C7.05764 17.3719 6.58813 17.2561 6.41662 17.1977C6.22093 17.1279 6.01429 17.0346 5.82088 16.8019C5.77212 16.7439 5.69973 16.5852 5.69973 16.4289H5.21659V17.7514H5.74941V17.5731C5.74941 17.5549 5.7776 17.4691 5.86429 17.5112C5.97489 17.5616 6.30188 17.6877 6.64516 17.7578C6.92366 17.815 7.10399 17.856 7.45128 17.856C8.01977 17.856 8.32392 17.7656 8.53389 17.7064C8.73572 17.6491 8.9811 17.5478 9.17785 17.393C9.28605 17.3093 9.52114 17.0909 9.52114 16.6972C9.52114 16.3173 9.31757 16.0819 9.2433 16.0119C9.14459 15.9137 9.02558 15.8385 8.89962 15.7803C8.78822 15.7305 8.61618 15.6683 8.47579 15.6353C8.19956 15.5671 7.57951 15.4857 7.28485 15.456C6.97442 15.4228 6.43291 15.3789 6.21919 15.3132C6.15361 15.2941 6.01883 15.2294 6.01883 15.0781C6.01883 14.9705 6.08215 14.8777 6.20129 14.8018C6.39137 14.6846 6.78034 14.6125 7.18012 14.6125C7.65765 14.6114 8.05971 14.7153 8.31537 14.8292C8.40299 14.8709 8.50357 14.9235 8.58625 14.9889C8.67735 15.0626 8.80478 15.215 8.85113 15.428H9.28217V14.2764H8.80291V14.4097C8.80291 14.4537 8.75776 14.5088 8.67014 14.4643C8.45642 14.3516 7.8496 14.1121 7.10399 14.1085V14.1085ZM12.8689 17.8914C12.0809 17.8914 11.3502 17.6574 10.8597 17.2237C10.4924 16.8972 10.3124 16.4529 10.3124 15.9975C10.3124 15.5471 10.499 15.0967 10.8597 14.7717C11.314 14.3647 12.1163 14.1084 12.8689 14.1084C13.7075 14.1084 14.3744 14.317 14.8836 14.7736C15.2474 15.1003 15.4235 15.5444 15.4235 15.9975C15.4235 16.435 15.2376 16.9023 14.8836 17.2237C14.4101 17.6615 13.6618 17.8914 12.8689 17.8914V17.393C13.2907 17.393 13.6778 17.2484 13.9483 16.9837C14.2177 16.7172 14.3433 16.3947 14.3433 15.9975C14.3433 15.6137 14.2084 15.261 13.9483 15.0084C13.6816 14.7494 13.2827 14.6008 12.8689 14.6008C12.4548 14.6008 12.0581 14.7469 11.7884 15.0084C11.5322 15.261 11.396 15.617 11.396 15.9975C11.396 16.3753 11.534 16.7298 11.7884 16.9837C12.0581 17.247 12.4548 17.393 12.8689 17.393" fill="white"/>
</g>
<defs>
<clipPath id="clip0_1364_1689">
<rect width="22" height="4" fill="white" transform="translate(5 14)"/>
</clipPath>
</defs>
</svg>
