<svg width="32" height="32" viewBox="0 0 32 32" fill="none" xmlns="http://www.w3.org/2000/svg">
<rect width="32" height="32" rx="16" fill="#373F47"/>
<g clip-path="url(#clip0_1364_1683)">
<path d="M16.0002 12.0215L17.8564 9.75201C20.1822 9.87876 22.3482 10.433 24.3207 11.3383L24.2104 11.2925C23.5894 12.101 22.7704 12.7288 21.8254 13.1075L21.7872 13.121C21.6777 12.0418 20.9217 11.7785 18.5217 11.7785L16.0009 26L13.4652 11.7755C11.0802 11.7755 10.3242 12.041 10.2139 13.1195C9.23142 12.7303 8.41317 12.1055 7.80192 11.3128L7.79217 11.3C9.65292 10.439 11.8189 9.88326 14.0989 9.75726L14.1447 9.75501L16.0009 12.0215H16.0002ZM16.0002 9.09651C16.0804 9.09501 16.1749 9.09501 16.2694 9.09501C19.2447 9.09501 22.0729 9.72501 24.6274 10.859L24.4962 10.8073C24.6739 10.5118 24.8434 10.1675 24.9837 9.80901L25.0002 9.76176C22.3369 8.66451 19.2469 8.01951 16.0077 8.00076H16.0002C12.7542 8.01876 9.66342 8.66376 6.83667 9.82176L7.00017 9.76251C7.16817 10.1788 7.33692 10.5238 7.52742 10.856L7.50417 10.8125C9.93267 9.72651 12.7669 9.09426 15.7497 9.09426C15.8382 9.09426 15.9259 9.09501 16.0137 9.09576H16.0002V9.09651Z" fill="white"/>
</g>
<defs>
<clipPath id="clip0_1364_1683">
<rect width="18" height="18" fill="white" transform="translate(7 8)"/>
</clipPath>
</defs>
</svg>
